<mxfile host="app.diagrams.net" agent="Mozilla/5.0 (Windows NT 10.0; Win64; x64) AppleWebKit/537.36 (KHTML, like Gecko) Chrome/134.0.0.0 Safari/537.36" version="26.1.3">
  <diagram name="PÃ¡gina-1" id="UwVN-nK65iExCXf8n9-s">
    <mxGraphModel dx="1509" dy="777" grid="1" gridSize="10" guides="1" tooltips="1" connect="1" arrows="1" fold="1" page="1" pageScale="1" pageWidth="2000" pageHeight="1500" math="0" shadow="0">
      <root>
        <mxCell id="0" />
        <mxCell id="1" parent="0" />
        <mxCell id="XIbNTFzJYX4tTPLGKNR0-43" value="repository" style="shape=folder;fontStyle=1;tabWidth=110;tabHeight=30;tabPosition=left;html=1;boundedLbl=1;labelInHeader=1;container=1;collapsible=0;whiteSpace=wrap;" vertex="1" parent="1">
          <mxGeometry x="306" y="151" width="380" height="1160" as="geometry" />
        </mxCell>
        <mxCell id="XIbNTFzJYX4tTPLGKNR0-44" value="" style="html=1;strokeColor=none;resizeWidth=1;resizeHeight=1;fillColor=none;part=1;connectable=0;allowArrows=0;deletable=0;whiteSpace=wrap;" vertex="1" parent="XIbNTFzJYX4tTPLGKNR0-43">
          <mxGeometry width="380" height="811.9999999999999" relative="1" as="geometry">
            <mxPoint y="30" as="offset" />
          </mxGeometry>
        </mxCell>
        <mxCell id="l_BnmervSVn-iQjaS1jv-24" value="controller" style="shape=folder;fontStyle=1;tabWidth=110;tabHeight=30;tabPosition=left;html=1;boundedLbl=1;labelInHeader=1;container=1;collapsible=0;whiteSpace=wrap;" parent="1" vertex="1">
          <mxGeometry x="833.5" y="88" width="380" height="1303" as="geometry" />
        </mxCell>
        <mxCell id="l_BnmervSVn-iQjaS1jv-25" value="" style="html=1;strokeColor=none;resizeWidth=1;resizeHeight=1;fillColor=none;part=1;connectable=0;allowArrows=0;deletable=0;whiteSpace=wrap;" parent="l_BnmervSVn-iQjaS1jv-24" vertex="1">
          <mxGeometry width="380" height="912.1" relative="1" as="geometry">
            <mxPoint y="30" as="offset" />
          </mxGeometry>
        </mxCell>
        <mxCell id="l_BnmervSVn-iQjaS1jv-22" value="model" style="shape=folder;fontStyle=1;tabWidth=110;tabHeight=30;tabPosition=left;html=1;boundedLbl=1;labelInHeader=1;container=1;collapsible=0;whiteSpace=wrap;" parent="1" vertex="1">
          <mxGeometry x="1403.5" y="101" width="290" height="1310" as="geometry" />
        </mxCell>
        <mxCell id="l_BnmervSVn-iQjaS1jv-23" value="" style="html=1;strokeColor=none;resizeWidth=1;resizeHeight=1;fillColor=none;part=1;connectable=0;allowArrows=0;deletable=0;whiteSpace=wrap;" parent="l_BnmervSVn-iQjaS1jv-22" vertex="1">
          <mxGeometry width="290" height="916.9999999999999" relative="1" as="geometry">
            <mxPoint y="30" as="offset" />
          </mxGeometry>
        </mxCell>
        <mxCell id="GkCsFmHKvnaNk-gIH9po-1" value="Usuario" style="swimlane;fontStyle=1;align=center;verticalAlign=top;childLayout=stackLayout;horizontal=1;startSize=26;horizontalStack=0;resizeParent=1;resizeParentMax=0;resizeLast=0;collapsible=1;marginBottom=0;whiteSpace=wrap;html=1;" parent="1" vertex="1">
          <mxGeometry x="1460.99" y="838" width="180" height="230" as="geometry" />
        </mxCell>
        <mxCell id="GkCsFmHKvnaNk-gIH9po-2" value="- id: String&lt;div&gt;- nome: String&lt;/div&gt;&lt;div&gt;- email: String&lt;/div&gt;&lt;div&gt;- senha: String&lt;/div&gt;" style="text;strokeColor=none;fillColor=none;align=left;verticalAlign=top;spacingLeft=4;spacingRight=4;overflow=hidden;rotatable=0;points=[[0,0.5],[1,0.5]];portConstraint=eastwest;whiteSpace=wrap;html=1;" parent="GkCsFmHKvnaNk-gIH9po-1" vertex="1">
          <mxGeometry y="26" width="180" height="64" as="geometry" />
        </mxCell>
        <mxCell id="GkCsFmHKvnaNk-gIH9po-3" value="" style="line;strokeWidth=1;fillColor=none;align=left;verticalAlign=middle;spacingTop=-1;spacingLeft=3;spacingRight=3;rotatable=0;labelPosition=right;points=[];portConstraint=eastwest;strokeColor=inherit;" parent="GkCsFmHKvnaNk-gIH9po-1" vertex="1">
          <mxGeometry y="90" width="180" height="8" as="geometry" />
        </mxCell>
        <mxCell id="dyiuCSo1GlHXxItX47h8-4" value="+ getId(): String;&lt;div&gt;+ setId(String id): void;&lt;br&gt;&lt;/div&gt;&lt;div&gt;+ getNome(): String;&lt;div&gt;+ setNome(String nome): void;&lt;/div&gt;&lt;/div&gt;&lt;div&gt;+ getEmail(): String;&lt;div&gt;+ setEmail(String email): void;&lt;/div&gt;&lt;/div&gt;&lt;div&gt;+ getSenha(): String;&lt;div&gt;+ setSenha(String senha): void;&lt;/div&gt;&lt;/div&gt;" style="text;strokeColor=none;fillColor=none;align=left;verticalAlign=top;spacingLeft=4;spacingRight=4;overflow=hidden;rotatable=0;points=[[0,0.5],[1,0.5]];portConstraint=eastwest;whiteSpace=wrap;html=1;" parent="GkCsFmHKvnaNk-gIH9po-1" vertex="1">
          <mxGeometry y="98" width="180" height="132" as="geometry" />
        </mxCell>
        <mxCell id="GkCsFmHKvnaNk-gIH9po-10" value="pode ter" style="endArrow=none;html=1;endSize=8;startArrow=open;startSize=8;startFill=0;edgeStyle=orthogonalEdgeStyle;rounded=0;" parent="1" source="GkCsFmHKvnaNk-gIH9po-1" target="GkCsFmHKvnaNk-gIH9po-5" edge="1">
          <mxGeometry relative="1" as="geometry">
            <mxPoint x="1203.1799999999998" y="738" as="sourcePoint" />
            <mxPoint x="1273.1799999999998" y="687" as="targetPoint" />
            <mxPoint as="offset" />
          </mxGeometry>
        </mxCell>
        <mxCell id="GkCsFmHKvnaNk-gIH9po-11" value="1" style="edgeLabel;resizable=0;html=1;align=left;verticalAlign=top;" parent="GkCsFmHKvnaNk-gIH9po-10" connectable="0" vertex="1">
          <mxGeometry x="-1" relative="1" as="geometry">
            <mxPoint x="10" as="offset" />
          </mxGeometry>
        </mxCell>
        <mxCell id="GkCsFmHKvnaNk-gIH9po-12" value="0.*" style="edgeLabel;resizable=0;html=1;align=right;verticalAlign=top;" parent="GkCsFmHKvnaNk-gIH9po-10" connectable="0" vertex="1">
          <mxGeometry x="1" relative="1" as="geometry">
            <mxPoint x="-10" as="offset" />
          </mxGeometry>
        </mxCell>
        <mxCell id="GkCsFmHKvnaNk-gIH9po-17" value="pode realizar" style="endArrow=none;html=1;endSize=8;startArrow=open;startSize=8;startFill=0;edgeStyle=orthogonalEdgeStyle;rounded=0;exitX=0.5;exitY=0;exitDx=0;exitDy=0;" parent="1" source="GkCsFmHKvnaNk-gIH9po-1" target="GkCsFmHKvnaNk-gIH9po-13" edge="1">
          <mxGeometry x="0.2294" relative="1" as="geometry">
            <mxPoint x="1173.1799999999998" y="468" as="sourcePoint" />
            <mxPoint x="1373.1799999999998" y="468" as="targetPoint" />
            <mxPoint as="offset" />
          </mxGeometry>
        </mxCell>
        <mxCell id="GkCsFmHKvnaNk-gIH9po-18" value="1" style="edgeLabel;resizable=0;html=1;align=left;verticalAlign=top;" parent="GkCsFmHKvnaNk-gIH9po-17" connectable="0" vertex="1">
          <mxGeometry x="-1" relative="1" as="geometry">
            <mxPoint x="-20" y="-30" as="offset" />
          </mxGeometry>
        </mxCell>
        <mxCell id="GkCsFmHKvnaNk-gIH9po-19" value="0.*" style="edgeLabel;resizable=0;html=1;align=right;verticalAlign=top;" parent="GkCsFmHKvnaNk-gIH9po-17" connectable="0" vertex="1">
          <mxGeometry x="1" relative="1" as="geometry">
            <mxPoint x="-10" as="offset" />
          </mxGeometry>
        </mxCell>
        <mxCell id="g4UmNYB-dJKoZEBY1lCp-1" value="Estabelecimento" style="swimlane;fontStyle=1;align=center;verticalAlign=top;childLayout=stackLayout;horizontal=1;startSize=26;horizontalStack=0;resizeParent=1;resizeParentMax=0;resizeLast=0;collapsible=1;marginBottom=0;whiteSpace=wrap;html=1;" parent="1" vertex="1">
          <mxGeometry x="1460.99" y="158" width="180" height="140" as="geometry" />
        </mxCell>
        <mxCell id="g4UmNYB-dJKoZEBY1lCp-2" value="- id: String&lt;div&gt;- nome: String&lt;/div&gt;" style="text;strokeColor=none;fillColor=none;align=left;verticalAlign=top;spacingLeft=4;spacingRight=4;overflow=hidden;rotatable=0;points=[[0,0.5],[1,0.5]];portConstraint=eastwest;whiteSpace=wrap;html=1;" parent="g4UmNYB-dJKoZEBY1lCp-1" vertex="1">
          <mxGeometry y="26" width="180" height="34" as="geometry" />
        </mxCell>
        <mxCell id="g4UmNYB-dJKoZEBY1lCp-3" value="" style="line;strokeWidth=1;fillColor=none;align=left;verticalAlign=middle;spacingTop=-1;spacingLeft=3;spacingRight=3;rotatable=0;labelPosition=right;points=[];portConstraint=eastwest;strokeColor=inherit;" parent="g4UmNYB-dJKoZEBY1lCp-1" vertex="1">
          <mxGeometry y="60" width="180" height="8" as="geometry" />
        </mxCell>
        <mxCell id="dyiuCSo1GlHXxItX47h8-5" value="+ getId(): String;&lt;div&gt;+ setId(String id): void;&lt;/div&gt;&lt;div&gt;+ getNome(): String;&lt;/div&gt;&lt;div&gt;+ setNome(String nome): void;&lt;/div&gt;" style="text;strokeColor=none;fillColor=none;align=left;verticalAlign=top;spacingLeft=4;spacingRight=4;overflow=hidden;rotatable=0;points=[[0,0.5],[1,0.5]];portConstraint=eastwest;whiteSpace=wrap;html=1;" parent="g4UmNYB-dJKoZEBY1lCp-1" vertex="1">
          <mxGeometry y="68" width="180" height="72" as="geometry" />
        </mxCell>
        <mxCell id="g4UmNYB-dJKoZEBY1lCp-6" value="pode pertencer" style="endArrow=none;html=1;endSize=8;startArrow=open;startSize=8;startFill=0;edgeStyle=orthogonalEdgeStyle;rounded=0;entryX=0.5;entryY=0;entryDx=0;entryDy=0;" parent="1" source="g4UmNYB-dJKoZEBY1lCp-1" target="GkCsFmHKvnaNk-gIH9po-13" edge="1">
          <mxGeometry x="-0.265" y="-1" relative="1" as="geometry">
            <mxPoint x="1223.1799999999998" y="258" as="sourcePoint" />
            <mxPoint x="1423.1799999999998" y="258" as="targetPoint" />
            <mxPoint as="offset" />
          </mxGeometry>
        </mxCell>
        <mxCell id="g4UmNYB-dJKoZEBY1lCp-7" value="1" style="edgeLabel;resizable=0;html=1;align=left;verticalAlign=top;" parent="g4UmNYB-dJKoZEBY1lCp-6" connectable="0" vertex="1">
          <mxGeometry x="-1" relative="1" as="geometry">
            <mxPoint x="10" as="offset" />
          </mxGeometry>
        </mxCell>
        <mxCell id="g4UmNYB-dJKoZEBY1lCp-8" value="0.*" style="edgeLabel;resizable=0;html=1;align=right;verticalAlign=top;" parent="g4UmNYB-dJKoZEBY1lCp-6" connectable="0" vertex="1">
          <mxGeometry x="1" relative="1" as="geometry">
            <mxPoint x="-10" y="-30" as="offset" />
          </mxGeometry>
        </mxCell>
        <mxCell id="l_BnmervSVn-iQjaS1jv-8" value="utiliza" style="endArrow=open;html=1;endSize=8;startArrow=none;startSize=8;startFill=0;edgeStyle=orthogonalEdgeStyle;rounded=0;dashed=1;dashPattern=8 8;endFill=0;" parent="1" source="dyiuCSo1GlHXxItX47h8-7" target="GkCsFmHKvnaNk-gIH9po-1" edge="1">
          <mxGeometry x="-0.0159" relative="1" as="geometry">
            <mxPoint x="753.1800000000001" y="645" as="sourcePoint" />
            <mxPoint x="1191.31" y="718" as="targetPoint" />
            <mxPoint as="offset" />
          </mxGeometry>
        </mxCell>
        <mxCell id="l_BnmervSVn-iQjaS1jv-9" value="1" style="edgeLabel;resizable=0;html=1;align=left;verticalAlign=top;" parent="l_BnmervSVn-iQjaS1jv-8" connectable="0" vertex="1">
          <mxGeometry x="-1" relative="1" as="geometry">
            <mxPoint x="15" y="-3" as="offset" />
          </mxGeometry>
        </mxCell>
        <mxCell id="l_BnmervSVn-iQjaS1jv-10" value="1" style="edgeLabel;resizable=0;html=1;align=right;verticalAlign=top;" parent="l_BnmervSVn-iQjaS1jv-8" connectable="0" vertex="1">
          <mxGeometry x="1" relative="1" as="geometry">
            <mxPoint x="-10" as="offset" />
          </mxGeometry>
        </mxCell>
        <mxCell id="wYj1TZqlmk5UdjbYOgkm-1" value="ListaDeCompraController" style="swimlane;fontStyle=1;align=center;verticalAlign=top;childLayout=stackLayout;horizontal=1;startSize=26;horizontalStack=0;resizeParent=1;resizeParentMax=0;resizeLast=0;collapsible=1;marginBottom=0;whiteSpace=wrap;html=1;" parent="1" vertex="1">
          <mxGeometry x="882.88" y="1183" width="285" height="170" as="geometry" />
        </mxCell>
        <mxCell id="wYj1TZqlmk5UdjbYOgkm-2" value="- listaRepository: ListaDeCompraRepository" style="text;strokeColor=none;fillColor=none;align=left;verticalAlign=top;spacingLeft=4;spacingRight=4;overflow=hidden;rotatable=0;points=[[0,0.5],[1,0.5]];portConstraint=eastwest;whiteSpace=wrap;html=1;" parent="wYj1TZqlmk5UdjbYOgkm-1" vertex="1">
          <mxGeometry y="26" width="285" height="24" as="geometry" />
        </mxCell>
        <mxCell id="wYj1TZqlmk5UdjbYOgkm-3" value="" style="line;strokeWidth=1;fillColor=none;align=left;verticalAlign=middle;spacingTop=-1;spacingLeft=3;spacingRight=3;rotatable=0;labelPosition=right;points=[];portConstraint=eastwest;strokeColor=inherit;" parent="wYj1TZqlmk5UdjbYOgkm-1" vertex="1">
          <mxGeometry y="50" width="285" height="8" as="geometry" />
        </mxCell>
        <mxCell id="wYj1TZqlmk5UdjbYOgkm-4" value="+ criarLista(ListaDeCompra listaDeCompra): ListaDeCompra;&lt;div&gt;+ listarListas(): List&amp;lt;ListaDeCompra&amp;gt;;&lt;/div&gt;&lt;div&gt;+ atualizarLista(String id, ListaDeCompra listaDeCompra): String;&lt;/div&gt;&lt;div&gt;+ buscaLista(String id): ListaDeCompra;&lt;br&gt;&lt;div&gt;+ deletarLista(String id): String;&lt;/div&gt;&lt;/div&gt;" style="text;strokeColor=none;fillColor=none;align=left;verticalAlign=top;spacingLeft=4;spacingRight=4;overflow=hidden;rotatable=0;points=[[0,0.5],[1,0.5]];portConstraint=eastwest;whiteSpace=wrap;html=1;" parent="wYj1TZqlmk5UdjbYOgkm-1" vertex="1">
          <mxGeometry y="58" width="285" height="112" as="geometry" />
        </mxCell>
        <mxCell id="dyiuCSo1GlHXxItX47h8-7" value="UsuarioController" style="swimlane;fontStyle=1;align=center;verticalAlign=top;childLayout=stackLayout;horizontal=1;startSize=26;horizontalStack=0;resizeParent=1;resizeParentMax=0;resizeLast=0;collapsible=1;marginBottom=0;whiteSpace=wrap;html=1;" parent="1" vertex="1">
          <mxGeometry x="882.88" y="858" width="285" height="190" as="geometry" />
        </mxCell>
        <mxCell id="dyiuCSo1GlHXxItX47h8-8" value="- usuarioRepository: UsuarioRepository" style="text;strokeColor=none;fillColor=none;align=left;verticalAlign=top;spacingLeft=4;spacingRight=4;overflow=hidden;rotatable=0;points=[[0,0.5],[1,0.5]];portConstraint=eastwest;whiteSpace=wrap;html=1;" parent="dyiuCSo1GlHXxItX47h8-7" vertex="1">
          <mxGeometry y="26" width="285" height="24" as="geometry" />
        </mxCell>
        <mxCell id="dyiuCSo1GlHXxItX47h8-9" value="" style="line;strokeWidth=1;fillColor=none;align=left;verticalAlign=middle;spacingTop=-1;spacingLeft=3;spacingRight=3;rotatable=0;labelPosition=right;points=[];portConstraint=eastwest;strokeColor=inherit;" parent="dyiuCSo1GlHXxItX47h8-7" vertex="1">
          <mxGeometry y="50" width="285" height="8" as="geometry" />
        </mxCell>
        <mxCell id="dyiuCSo1GlHXxItX47h8-10" value="+ criarUsuario(Usuario usuario): Usuario;&lt;div&gt;+ listarUsuarios(): List&amp;lt;Usuario&amp;gt;;&lt;/div&gt;&lt;div&gt;+ atualizarUsuario(String id, Usuario usuario): String;&lt;/div&gt;&lt;div&gt;+ verificarSenha(String email, String senha): Boolean;&lt;/div&gt;&lt;div&gt;+ buscaUsuario(String id): Usuario;&lt;br&gt;&lt;div&gt;+ deletarUsuario(String id): String;&lt;/div&gt;&lt;/div&gt;" style="text;strokeColor=none;fillColor=none;align=left;verticalAlign=top;spacingLeft=4;spacingRight=4;overflow=hidden;rotatable=0;points=[[0,0.5],[1,0.5]];portConstraint=eastwest;whiteSpace=wrap;html=1;" parent="dyiuCSo1GlHXxItX47h8-7" vertex="1">
          <mxGeometry y="58" width="285" height="132" as="geometry" />
        </mxCell>
        <mxCell id="wYj1TZqlmk5UdjbYOgkm-5" value="EstabelecimentoController" style="swimlane;fontStyle=1;align=center;verticalAlign=top;childLayout=stackLayout;horizontal=1;startSize=26;horizontalStack=0;resizeParent=1;resizeParentMax=0;resizeLast=0;collapsible=1;marginBottom=0;whiteSpace=wrap;html=1;" parent="1" vertex="1">
          <mxGeometry x="861.31" y="143" width="328.13" height="170" as="geometry" />
        </mxCell>
        <mxCell id="wYj1TZqlmk5UdjbYOgkm-6" value="- estabelecimentoRepository: EstabelecimentoRepository" style="text;strokeColor=none;fillColor=none;align=left;verticalAlign=top;spacingLeft=4;spacingRight=4;overflow=hidden;rotatable=0;points=[[0,0.5],[1,0.5]];portConstraint=eastwest;whiteSpace=wrap;html=1;" parent="wYj1TZqlmk5UdjbYOgkm-5" vertex="1">
          <mxGeometry y="26" width="328.13" height="24" as="geometry" />
        </mxCell>
        <mxCell id="wYj1TZqlmk5UdjbYOgkm-7" value="" style="line;strokeWidth=1;fillColor=none;align=left;verticalAlign=middle;spacingTop=-1;spacingLeft=3;spacingRight=3;rotatable=0;labelPosition=right;points=[];portConstraint=eastwest;strokeColor=inherit;" parent="wYj1TZqlmk5UdjbYOgkm-5" vertex="1">
          <mxGeometry y="50" width="328.13" height="8" as="geometry" />
        </mxCell>
        <mxCell id="wYj1TZqlmk5UdjbYOgkm-8" value="+ criarEstabelecimento(Estabelecimento estabelecimento): Estabelecimento;&lt;div&gt;+ listarEstabelecimentos(): List&amp;lt;Estabelecimento&amp;gt;;&lt;/div&gt;&lt;div&gt;+ atualizarEstabelecimento(String id, Estabelecimento estabelecimento): String;&lt;/div&gt;&lt;div&gt;+ buscaEstabelecimento(String id): Estabelecimento;&lt;br&gt;&lt;div&gt;+ deletarEstabelecimento(String id): String;&lt;/div&gt;&lt;/div&gt;" style="text;strokeColor=none;fillColor=none;align=left;verticalAlign=top;spacingLeft=4;spacingRight=4;overflow=hidden;rotatable=0;points=[[0,0.5],[1,0.5]];portConstraint=eastwest;whiteSpace=wrap;html=1;" parent="wYj1TZqlmk5UdjbYOgkm-5" vertex="1">
          <mxGeometry y="58" width="328.13" height="112" as="geometry" />
        </mxCell>
        <mxCell id="wYj1TZqlmk5UdjbYOgkm-9" value="RegistroDeOfertaController" style="swimlane;fontStyle=1;align=center;verticalAlign=top;childLayout=stackLayout;horizontal=1;startSize=26;horizontalStack=0;resizeParent=1;resizeParentMax=0;resizeLast=0;collapsible=1;marginBottom=0;whiteSpace=wrap;html=1;" parent="1" vertex="1">
          <mxGeometry x="861.31" y="488" width="328.13" height="170" as="geometry" />
        </mxCell>
        <mxCell id="wYj1TZqlmk5UdjbYOgkm-10" value="- registroRepository: RegistroDeOfertaRepository" style="text;strokeColor=none;fillColor=none;align=left;verticalAlign=top;spacingLeft=4;spacingRight=4;overflow=hidden;rotatable=0;points=[[0,0.5],[1,0.5]];portConstraint=eastwest;whiteSpace=wrap;html=1;" parent="wYj1TZqlmk5UdjbYOgkm-9" vertex="1">
          <mxGeometry y="26" width="328.13" height="24" as="geometry" />
        </mxCell>
        <mxCell id="wYj1TZqlmk5UdjbYOgkm-11" value="" style="line;strokeWidth=1;fillColor=none;align=left;verticalAlign=middle;spacingTop=-1;spacingLeft=3;spacingRight=3;rotatable=0;labelPosition=right;points=[];portConstraint=eastwest;strokeColor=inherit;" parent="wYj1TZqlmk5UdjbYOgkm-9" vertex="1">
          <mxGeometry y="50" width="328.13" height="8" as="geometry" />
        </mxCell>
        <mxCell id="wYj1TZqlmk5UdjbYOgkm-12" value="+ criarRegistro(RegistroDeOferta registroDeOferta): RegistroDeOferta;&lt;div&gt;+ listarRegistros(): List&amp;lt;RegistroDeOferta&amp;gt;;&lt;/div&gt;&lt;div&gt;+ atualizarRegistro(String id, RegistroDeOferta registroDeOferta): String;&lt;/div&gt;&lt;div&gt;+ buscaRegistro(String id): RegistroDeOferta;&lt;br&gt;&lt;div&gt;+ deletarRegistro(String id): String;&lt;/div&gt;&lt;/div&gt;" style="text;strokeColor=none;fillColor=none;align=left;verticalAlign=top;spacingLeft=4;spacingRight=4;overflow=hidden;rotatable=0;points=[[0,0.5],[1,0.5]];portConstraint=eastwest;whiteSpace=wrap;html=1;" parent="wYj1TZqlmk5UdjbYOgkm-9" vertex="1">
          <mxGeometry y="58" width="328.13" height="112" as="geometry" />
        </mxCell>
        <mxCell id="GkCsFmHKvnaNk-gIH9po-13" value="RegistroDeOferta" style="swimlane;fontStyle=1;align=center;verticalAlign=top;childLayout=stackLayout;horizontal=1;startSize=26;horizontalStack=0;resizeParent=1;resizeParentMax=0;resizeLast=0;collapsible=1;marginBottom=0;whiteSpace=wrap;html=1;" parent="1" vertex="1">
          <mxGeometry x="1431.3" y="398" width="239.37" height="350" as="geometry" />
        </mxCell>
        <mxCell id="GkCsFmHKvnaNk-gIH9po-14" value="- id: String&lt;div&gt;- usuario: Usuario&lt;/div&gt;&lt;div&gt;- estabelecimento: Estabelecimento&lt;/div&gt;&lt;div&gt;- produto: String&lt;/div&gt;&lt;div&gt;- oferta: Double&lt;/div&gt;&lt;div&gt;- localizacao: String&lt;/div&gt;" style="text;strokeColor=none;fillColor=none;align=left;verticalAlign=top;spacingLeft=4;spacingRight=4;overflow=hidden;rotatable=0;points=[[0,0.5],[1,0.5]];portConstraint=eastwest;whiteSpace=wrap;html=1;" parent="GkCsFmHKvnaNk-gIH9po-13" vertex="1">
          <mxGeometry y="26" width="239.37" height="94" as="geometry" />
        </mxCell>
        <mxCell id="GkCsFmHKvnaNk-gIH9po-15" value="" style="line;strokeWidth=1;fillColor=none;align=left;verticalAlign=middle;spacingTop=-1;spacingLeft=3;spacingRight=3;rotatable=0;labelPosition=right;points=[];portConstraint=eastwest;strokeColor=inherit;" parent="GkCsFmHKvnaNk-gIH9po-13" vertex="1">
          <mxGeometry y="120" width="239.37" height="8" as="geometry" />
        </mxCell>
        <mxCell id="GkCsFmHKvnaNk-gIH9po-16" value="+ registrarOferta(&lt;span style=&quot;background-color: transparent; color: light-dark(rgb(0, 0, 0), rgb(255, 255, 255));&quot;&gt;): void;&lt;/span&gt;&lt;div&gt;&lt;div&gt;+ getId(): String;&lt;/div&gt;&lt;div&gt;+ setId(String id): void;&lt;/div&gt;&lt;/div&gt;&lt;div&gt;+ getUsuario(): Usuario;&lt;/div&gt;&lt;div&gt;+ setUsuario(Usuario usuario): void;&lt;/div&gt;&lt;div&gt;+ getEstabelecimento(): Estabelecimento;&lt;/div&gt;&lt;div&gt;+ setEstabelecimento(Estabelecimento estabelecimento): void;&lt;/div&gt;&lt;div&gt;+ getProduto(): String;&lt;div&gt;+ setProduto(String produto): void;&lt;/div&gt;&lt;/div&gt;&lt;div&gt;&lt;div&gt;+ getOferta(): double;&lt;/div&gt;&lt;div&gt;+ setOferta(double oferta): void;&lt;/div&gt;&lt;/div&gt;&lt;div&gt;+ getLocalizacao(): String;&lt;div&gt;+ setLocalizacao(String produto): void;&lt;/div&gt;&lt;/div&gt;" style="text;strokeColor=none;fillColor=none;align=left;verticalAlign=top;spacingLeft=4;spacingRight=4;overflow=hidden;rotatable=0;points=[[0,0.5],[1,0.5]];portConstraint=eastwest;whiteSpace=wrap;html=1;" parent="GkCsFmHKvnaNk-gIH9po-13" vertex="1">
          <mxGeometry y="128" width="239.37" height="222" as="geometry" />
        </mxCell>
        <mxCell id="GkCsFmHKvnaNk-gIH9po-5" value="ListaDeCompra" style="swimlane;fontStyle=1;align=center;verticalAlign=top;childLayout=stackLayout;horizontal=1;startSize=26;horizontalStack=0;resizeParent=1;resizeParentMax=0;resizeLast=0;collapsible=1;marginBottom=0;whiteSpace=wrap;html=1;" parent="1" vertex="1">
          <mxGeometry x="1441.9299999999998" y="1158" width="218.13" height="220" as="geometry">
            <mxRectangle x="950" y="556" width="120" height="30" as="alternateBounds" />
          </mxGeometry>
        </mxCell>
        <mxCell id="GkCsFmHKvnaNk-gIH9po-6" value="- id: String&lt;div&gt;- usuario: Usuario&lt;/div&gt;&lt;div&gt;- itens: List&amp;lt;String&amp;gt;&lt;/div&gt;" style="text;strokeColor=none;fillColor=none;align=left;verticalAlign=top;spacingLeft=4;spacingRight=4;overflow=hidden;rotatable=0;points=[[0,0.5],[1,0.5]];portConstraint=eastwest;whiteSpace=wrap;html=1;" parent="GkCsFmHKvnaNk-gIH9po-5" vertex="1">
          <mxGeometry y="26" width="218.13" height="54" as="geometry" />
        </mxCell>
        <mxCell id="GkCsFmHKvnaNk-gIH9po-7" value="" style="line;strokeWidth=1;fillColor=none;align=left;verticalAlign=middle;spacingTop=-1;spacingLeft=3;spacingRight=3;rotatable=0;labelPosition=right;points=[];portConstraint=eastwest;strokeColor=inherit;" parent="GkCsFmHKvnaNk-gIH9po-5" vertex="1">
          <mxGeometry y="80" width="218.13" height="8" as="geometry" />
        </mxCell>
        <mxCell id="GkCsFmHKvnaNk-gIH9po-8" value="+ adicionarItem(String item): void;&lt;div&gt;+ removerItem(int index): void;&lt;/div&gt;&lt;div&gt;+ getId(): String;&lt;/div&gt;&lt;div&gt;+ setId(String id): void;&lt;/div&gt;&lt;div&gt;+ getUsuario(): Usuario&lt;/div&gt;&lt;div&gt;+ setUsuario(Usuario usuario): void;&lt;/div&gt;&lt;div&gt;+ getItens(): List&amp;lt;String&amp;gt;;&lt;/div&gt;&lt;div&gt;+ setItens(List&amp;lt;String&amp;gt; itens): void;&lt;/div&gt;" style="text;strokeColor=none;fillColor=none;align=left;verticalAlign=top;spacingLeft=4;spacingRight=4;overflow=hidden;rotatable=0;points=[[0,0.5],[1,0.5]];portConstraint=eastwest;whiteSpace=wrap;html=1;" parent="GkCsFmHKvnaNk-gIH9po-5" vertex="1">
          <mxGeometry y="88" width="218.13" height="132" as="geometry" />
        </mxCell>
        <mxCell id="XIbNTFzJYX4tTPLGKNR0-1" value="utiliza" style="endArrow=open;html=1;endSize=8;startArrow=none;startSize=8;startFill=0;edgeStyle=orthogonalEdgeStyle;rounded=0;dashed=1;dashPattern=8 8;endFill=0;" edge="1" parent="1" source="wYj1TZqlmk5UdjbYOgkm-9" target="GkCsFmHKvnaNk-gIH9po-13">
          <mxGeometry x="-0.0159" relative="1" as="geometry">
            <mxPoint x="1181.31" y="728" as="sourcePoint" />
            <mxPoint x="1406.31" y="728" as="targetPoint" />
            <mxPoint as="offset" />
          </mxGeometry>
        </mxCell>
        <mxCell id="XIbNTFzJYX4tTPLGKNR0-2" value="1" style="edgeLabel;resizable=0;html=1;align=left;verticalAlign=top;" connectable="0" vertex="1" parent="XIbNTFzJYX4tTPLGKNR0-1">
          <mxGeometry x="-1" relative="1" as="geometry">
            <mxPoint x="15" y="-3" as="offset" />
          </mxGeometry>
        </mxCell>
        <mxCell id="XIbNTFzJYX4tTPLGKNR0-3" value="1" style="edgeLabel;resizable=0;html=1;align=right;verticalAlign=top;" connectable="0" vertex="1" parent="XIbNTFzJYX4tTPLGKNR0-1">
          <mxGeometry x="1" relative="1" as="geometry">
            <mxPoint x="-10" as="offset" />
          </mxGeometry>
        </mxCell>
        <mxCell id="XIbNTFzJYX4tTPLGKNR0-4" value="utiliza" style="endArrow=open;html=1;endSize=8;startArrow=none;startSize=8;startFill=0;rounded=0;dashed=1;dashPattern=8 8;endFill=0;exitX=0.995;exitY=1.01;exitDx=0;exitDy=0;exitPerimeter=0;entryX=0;entryY=0;entryDx=0;entryDy=0;" edge="1" parent="1" source="wYj1TZqlmk5UdjbYOgkm-12" target="GkCsFmHKvnaNk-gIH9po-1">
          <mxGeometry x="-0.0159" relative="1" as="geometry">
            <mxPoint x="1236.31" y="788" as="sourcePoint" />
            <mxPoint x="1409.31" y="788" as="targetPoint" />
            <mxPoint as="offset" />
          </mxGeometry>
        </mxCell>
        <mxCell id="XIbNTFzJYX4tTPLGKNR0-5" value="1" style="edgeLabel;resizable=0;html=1;align=left;verticalAlign=top;" connectable="0" vertex="1" parent="XIbNTFzJYX4tTPLGKNR0-4">
          <mxGeometry x="-1" relative="1" as="geometry">
            <mxPoint x="15" y="-21" as="offset" />
          </mxGeometry>
        </mxCell>
        <mxCell id="XIbNTFzJYX4tTPLGKNR0-6" value="1" style="edgeLabel;resizable=0;html=1;align=right;verticalAlign=top;" connectable="0" vertex="1" parent="XIbNTFzJYX4tTPLGKNR0-4">
          <mxGeometry x="1" relative="1" as="geometry">
            <mxPoint x="-10" as="offset" />
          </mxGeometry>
        </mxCell>
        <mxCell id="XIbNTFzJYX4tTPLGKNR0-8" value="utiliza" style="endArrow=open;html=1;endSize=8;startArrow=none;startSize=8;startFill=0;rounded=0;dashed=1;dashPattern=8 8;endFill=0;exitX=1;exitY=0;exitDx=0;exitDy=0;entryX=-0.003;entryY=1;entryDx=0;entryDy=0;entryPerimeter=0;" edge="1" parent="1" source="wYj1TZqlmk5UdjbYOgkm-9" target="dyiuCSo1GlHXxItX47h8-5">
          <mxGeometry x="-0.0159" relative="1" as="geometry">
            <mxPoint x="1141.31" y="198" as="sourcePoint" />
            <mxPoint x="1346.31" y="377" as="targetPoint" />
            <mxPoint as="offset" />
          </mxGeometry>
        </mxCell>
        <mxCell id="XIbNTFzJYX4tTPLGKNR0-9" value="1" style="edgeLabel;resizable=0;html=1;align=left;verticalAlign=top;" connectable="0" vertex="1" parent="XIbNTFzJYX4tTPLGKNR0-8">
          <mxGeometry x="-1" relative="1" as="geometry">
            <mxPoint x="15" y="-3" as="offset" />
          </mxGeometry>
        </mxCell>
        <mxCell id="XIbNTFzJYX4tTPLGKNR0-10" value="1" style="edgeLabel;resizable=0;html=1;align=right;verticalAlign=top;" connectable="0" vertex="1" parent="XIbNTFzJYX4tTPLGKNR0-8">
          <mxGeometry x="1" relative="1" as="geometry">
            <mxPoint x="-10" y="-20" as="offset" />
          </mxGeometry>
        </mxCell>
        <mxCell id="XIbNTFzJYX4tTPLGKNR0-11" value="utiliza" style="endArrow=open;html=1;endSize=8;startArrow=none;startSize=8;startFill=0;edgeStyle=orthogonalEdgeStyle;rounded=0;dashed=1;dashPattern=8 8;endFill=0;" edge="1" parent="1" source="wYj1TZqlmk5UdjbYOgkm-5" target="g4UmNYB-dJKoZEBY1lCp-1">
          <mxGeometry x="-0.0159" relative="1" as="geometry">
            <mxPoint x="1287.99" y="208" as="sourcePoint" />
            <mxPoint x="1460.99" y="208" as="targetPoint" />
            <mxPoint as="offset" />
          </mxGeometry>
        </mxCell>
        <mxCell id="XIbNTFzJYX4tTPLGKNR0-12" value="1" style="edgeLabel;resizable=0;html=1;align=left;verticalAlign=top;" connectable="0" vertex="1" parent="XIbNTFzJYX4tTPLGKNR0-11">
          <mxGeometry x="-1" relative="1" as="geometry">
            <mxPoint x="15" y="-3" as="offset" />
          </mxGeometry>
        </mxCell>
        <mxCell id="XIbNTFzJYX4tTPLGKNR0-13" value="1" style="edgeLabel;resizable=0;html=1;align=right;verticalAlign=top;" connectable="0" vertex="1" parent="XIbNTFzJYX4tTPLGKNR0-11">
          <mxGeometry x="1" relative="1" as="geometry">
            <mxPoint x="-10" as="offset" />
          </mxGeometry>
        </mxCell>
        <mxCell id="XIbNTFzJYX4tTPLGKNR0-14" value="utiliza" style="endArrow=open;html=1;endSize=8;startArrow=none;startSize=8;startFill=0;edgeStyle=orthogonalEdgeStyle;rounded=0;dashed=1;dashPattern=8 8;endFill=0;" edge="1" parent="1" source="wYj1TZqlmk5UdjbYOgkm-1" target="GkCsFmHKvnaNk-gIH9po-5">
          <mxGeometry x="-0.0159" relative="1" as="geometry">
            <mxPoint x="1189.44" y="1338" as="sourcePoint" />
            <mxPoint x="1482.44" y="1338" as="targetPoint" />
            <mxPoint as="offset" />
          </mxGeometry>
        </mxCell>
        <mxCell id="XIbNTFzJYX4tTPLGKNR0-15" value="1" style="edgeLabel;resizable=0;html=1;align=left;verticalAlign=top;" connectable="0" vertex="1" parent="XIbNTFzJYX4tTPLGKNR0-14">
          <mxGeometry x="-1" relative="1" as="geometry">
            <mxPoint x="15" y="-3" as="offset" />
          </mxGeometry>
        </mxCell>
        <mxCell id="XIbNTFzJYX4tTPLGKNR0-16" value="1" style="edgeLabel;resizable=0;html=1;align=right;verticalAlign=top;" connectable="0" vertex="1" parent="XIbNTFzJYX4tTPLGKNR0-14">
          <mxGeometry x="1" relative="1" as="geometry">
            <mxPoint x="-10" as="offset" />
          </mxGeometry>
        </mxCell>
        <mxCell id="XIbNTFzJYX4tTPLGKNR0-21" value="UsuarioRepository" style="swimlane;fontStyle=1;align=center;verticalAlign=top;childLayout=stackLayout;horizontal=1;startSize=26;horizontalStack=0;resizeParent=1;resizeParentMax=0;resizeLast=0;collapsible=1;marginBottom=0;whiteSpace=wrap;html=1;" vertex="1" parent="1">
          <mxGeometry x="353.5" y="936" width="285" height="34" as="geometry" />
        </mxCell>
        <mxCell id="XIbNTFzJYX4tTPLGKNR0-23" value="" style="line;strokeWidth=1;fillColor=none;align=left;verticalAlign=middle;spacingTop=-1;spacingLeft=3;spacingRight=3;rotatable=0;labelPosition=right;points=[];portConstraint=eastwest;strokeColor=inherit;" vertex="1" parent="XIbNTFzJYX4tTPLGKNR0-21">
          <mxGeometry y="26" width="285" height="8" as="geometry" />
        </mxCell>
        <mxCell id="XIbNTFzJYX4tTPLGKNR0-25" value="utiliza" style="endArrow=open;html=1;endSize=8;startArrow=none;startSize=8;startFill=0;edgeStyle=orthogonalEdgeStyle;rounded=0;endFill=0;" edge="1" parent="1" source="dyiuCSo1GlHXxItX47h8-7" target="XIbNTFzJYX4tTPLGKNR0-21">
          <mxGeometry x="-0.0159" relative="1" as="geometry">
            <mxPoint x="853.5" y="957.5" as="sourcePoint" />
            <mxPoint x="663.5" y="947.5" as="targetPoint" />
            <mxPoint as="offset" />
          </mxGeometry>
        </mxCell>
        <mxCell id="XIbNTFzJYX4tTPLGKNR0-26" value="1" style="edgeLabel;resizable=0;html=1;align=left;verticalAlign=top;" connectable="0" vertex="1" parent="XIbNTFzJYX4tTPLGKNR0-25">
          <mxGeometry x="-1" relative="1" as="geometry">
            <mxPoint x="-19" y="-2" as="offset" />
          </mxGeometry>
        </mxCell>
        <mxCell id="XIbNTFzJYX4tTPLGKNR0-27" value="1" style="edgeLabel;resizable=0;html=1;align=right;verticalAlign=top;" connectable="0" vertex="1" parent="XIbNTFzJYX4tTPLGKNR0-25">
          <mxGeometry x="1" relative="1" as="geometry">
            <mxPoint x="25" as="offset" />
          </mxGeometry>
        </mxCell>
        <mxCell id="XIbNTFzJYX4tTPLGKNR0-28" value="RegistroDeOfertaRepository" style="swimlane;fontStyle=1;align=center;verticalAlign=top;childLayout=stackLayout;horizontal=1;startSize=26;horizontalStack=0;resizeParent=1;resizeParentMax=0;resizeLast=0;collapsible=1;marginBottom=0;whiteSpace=wrap;html=1;" vertex="1" parent="1">
          <mxGeometry x="353.5" y="556" width="285" height="34" as="geometry" />
        </mxCell>
        <mxCell id="XIbNTFzJYX4tTPLGKNR0-29" value="" style="line;strokeWidth=1;fillColor=none;align=left;verticalAlign=middle;spacingTop=-1;spacingLeft=3;spacingRight=3;rotatable=0;labelPosition=right;points=[];portConstraint=eastwest;strokeColor=inherit;" vertex="1" parent="XIbNTFzJYX4tTPLGKNR0-28">
          <mxGeometry y="26" width="285" height="8" as="geometry" />
        </mxCell>
        <mxCell id="XIbNTFzJYX4tTPLGKNR0-30" value="utiliza" style="endArrow=open;html=1;endSize=8;startArrow=none;startSize=8;startFill=0;edgeStyle=orthogonalEdgeStyle;rounded=0;endFill=0;" edge="1" parent="1" source="wYj1TZqlmk5UdjbYOgkm-9" target="XIbNTFzJYX4tTPLGKNR0-28">
          <mxGeometry x="-0.0159" relative="1" as="geometry">
            <mxPoint x="817.5" y="631" as="sourcePoint" />
            <mxPoint x="573.5" y="631" as="targetPoint" />
            <mxPoint as="offset" />
          </mxGeometry>
        </mxCell>
        <mxCell id="XIbNTFzJYX4tTPLGKNR0-31" value="1" style="edgeLabel;resizable=0;html=1;align=left;verticalAlign=top;" connectable="0" vertex="1" parent="XIbNTFzJYX4tTPLGKNR0-30">
          <mxGeometry x="-1" relative="1" as="geometry">
            <mxPoint x="-19" y="-2" as="offset" />
          </mxGeometry>
        </mxCell>
        <mxCell id="XIbNTFzJYX4tTPLGKNR0-32" value="1" style="edgeLabel;resizable=0;html=1;align=right;verticalAlign=top;" connectable="0" vertex="1" parent="XIbNTFzJYX4tTPLGKNR0-30">
          <mxGeometry x="1" relative="1" as="geometry">
            <mxPoint x="25" as="offset" />
          </mxGeometry>
        </mxCell>
        <mxCell id="XIbNTFzJYX4tTPLGKNR0-33" value="ListaDeCompraRepository" style="swimlane;fontStyle=1;align=center;verticalAlign=top;childLayout=stackLayout;horizontal=1;startSize=26;horizontalStack=0;resizeParent=1;resizeParentMax=0;resizeLast=0;collapsible=1;marginBottom=0;whiteSpace=wrap;html=1;" vertex="1" parent="1">
          <mxGeometry x="353.5" y="1251" width="285" height="34" as="geometry" />
        </mxCell>
        <mxCell id="XIbNTFzJYX4tTPLGKNR0-34" value="" style="line;strokeWidth=1;fillColor=none;align=left;verticalAlign=middle;spacingTop=-1;spacingLeft=3;spacingRight=3;rotatable=0;labelPosition=right;points=[];portConstraint=eastwest;strokeColor=inherit;" vertex="1" parent="XIbNTFzJYX4tTPLGKNR0-33">
          <mxGeometry y="26" width="285" height="8" as="geometry" />
        </mxCell>
        <mxCell id="XIbNTFzJYX4tTPLGKNR0-35" value="utiliza" style="endArrow=open;html=1;endSize=8;startArrow=none;startSize=8;startFill=0;edgeStyle=orthogonalEdgeStyle;rounded=0;endFill=0;" edge="1" parent="1" source="wYj1TZqlmk5UdjbYOgkm-1" target="XIbNTFzJYX4tTPLGKNR0-33">
          <mxGeometry x="-0.0159" relative="1" as="geometry">
            <mxPoint x="917.5" y="1285" as="sourcePoint" />
            <mxPoint x="673.5" y="1285" as="targetPoint" />
            <mxPoint as="offset" />
          </mxGeometry>
        </mxCell>
        <mxCell id="XIbNTFzJYX4tTPLGKNR0-36" value="1" style="edgeLabel;resizable=0;html=1;align=left;verticalAlign=top;" connectable="0" vertex="1" parent="XIbNTFzJYX4tTPLGKNR0-35">
          <mxGeometry x="-1" relative="1" as="geometry">
            <mxPoint x="-19" y="-2" as="offset" />
          </mxGeometry>
        </mxCell>
        <mxCell id="XIbNTFzJYX4tTPLGKNR0-37" value="1" style="edgeLabel;resizable=0;html=1;align=right;verticalAlign=top;" connectable="0" vertex="1" parent="XIbNTFzJYX4tTPLGKNR0-35">
          <mxGeometry x="1" relative="1" as="geometry">
            <mxPoint x="25" as="offset" />
          </mxGeometry>
        </mxCell>
        <mxCell id="XIbNTFzJYX4tTPLGKNR0-38" value="EstabelecimentoRepository" style="swimlane;fontStyle=1;align=center;verticalAlign=top;childLayout=stackLayout;horizontal=1;startSize=26;horizontalStack=0;resizeParent=1;resizeParentMax=0;resizeLast=0;collapsible=1;marginBottom=0;whiteSpace=wrap;html=1;" vertex="1" parent="1">
          <mxGeometry x="353.5" y="211" width="285" height="34" as="geometry" />
        </mxCell>
        <mxCell id="XIbNTFzJYX4tTPLGKNR0-39" value="" style="line;strokeWidth=1;fillColor=none;align=left;verticalAlign=middle;spacingTop=-1;spacingLeft=3;spacingRight=3;rotatable=0;labelPosition=right;points=[];portConstraint=eastwest;strokeColor=inherit;" vertex="1" parent="XIbNTFzJYX4tTPLGKNR0-38">
          <mxGeometry y="26" width="285" height="8" as="geometry" />
        </mxCell>
        <mxCell id="XIbNTFzJYX4tTPLGKNR0-40" value="utiliza" style="endArrow=open;html=1;endSize=8;startArrow=none;startSize=8;startFill=0;edgeStyle=orthogonalEdgeStyle;rounded=0;endFill=0;" edge="1" parent="1" source="wYj1TZqlmk5UdjbYOgkm-5" target="XIbNTFzJYX4tTPLGKNR0-38">
          <mxGeometry x="-0.0159" relative="1" as="geometry">
            <mxPoint x="861.5" y="227.57" as="sourcePoint" />
            <mxPoint x="638.5" y="227.57" as="targetPoint" />
            <mxPoint as="offset" />
          </mxGeometry>
        </mxCell>
        <mxCell id="XIbNTFzJYX4tTPLGKNR0-41" value="1" style="edgeLabel;resizable=0;html=1;align=left;verticalAlign=top;" connectable="0" vertex="1" parent="XIbNTFzJYX4tTPLGKNR0-40">
          <mxGeometry x="-1" relative="1" as="geometry">
            <mxPoint x="-19" y="-2" as="offset" />
          </mxGeometry>
        </mxCell>
        <mxCell id="XIbNTFzJYX4tTPLGKNR0-42" value="1" style="edgeLabel;resizable=0;html=1;align=right;verticalAlign=top;" connectable="0" vertex="1" parent="XIbNTFzJYX4tTPLGKNR0-40">
          <mxGeometry x="1" relative="1" as="geometry">
            <mxPoint x="25" as="offset" />
          </mxGeometry>
        </mxCell>
      </root>
    </mxGraphModel>
  </diagram>
</mxfile>
